# xmcd
#
# Track frame offsets:
#	150
#	20550
#	33025
#	49825
#	62550
#	80900
#	95575
#	116700
#	146875
#	159450
#
# Disc length: 2236 seconds
#
# Revision: 1
# Processed by: cddbd v1.4PL0 Copyright (c) Steve Scherf et al.
# Submitted via: audiograbber 1.82.02
#
DISCID=8708ba0a
DTITLE=Livin' Blues - Ram Jam Josey
DYEAR=1900
DGENRE=
TTITLE0=Dizzy Busy Bluesmaker
TTITLE1=I'm Walking
TTITLE2=Ram Jam Josey
TTITLE3=Ramble On
TTITLE4=Poinsetta Petai
TTITLE5=Isabella
TTITLE6=Hobo Joee
TTITLE7=I'm Coming Home
TTITLE8=The Great Grandfather
TTITLE9=Empty Glasses
EXTD=
EXTT0=
EXTT1=
EXTT2=
EXTT3=
EXTT4=
EXTT5=
EXTT6=
EXTT7=
EXTT8=
EXTT9=
PLAYORDER=
